<?xml version="1.0" encoding="UTF-8" standalone="no"?><!DOCTYPE svg PUBLIC "-//W3C//DTD SVG 1.1//EN" "http://www.w3.org/Graphics/SVG/1.1/DTD/svg11.dtd"><svg width="100%" height="100%" viewBox="0 0 1052 1548" version="1.1" xmlns="http://www.w3.org/2000/svg" xmlns:xlink="http://www.w3.org/1999/xlink" xml:space="preserve" xmlns:serif="http://www.serif.com/" style="fill-rule:evenodd;clip-rule:evenodd;stroke-linejoin:round;stroke-miterlimit:2;"><g><path d="M910.392,646.359l-246.829,-52.569c-2.739,-0.579 -5.504,-0.869 -8.269,-0.869c-9.482,0 -18.779,3.398 -26.074,9.745c-9.428,8.191 -14.459,20.332 -13.59,32.789l53.517,769.034c-1.238,32.552 -58.152,74.928 -104.636,99.053c-48.723,-24.704 -105.848,-67.686 -107.138,-99.079l53.516,-769.008c0.869,-12.457 -4.161,-24.598 -13.59,-32.789c-7.295,-6.347 -16.592,-9.745 -26.073,-9.745c-2.766,0 -5.531,0.29 -8.27,0.869l-246.881,52.595c-32.236,-3.661 -73.242,-59.074 -96.84,-104.478c24.151,-47.617 65.71,-103.241 96.893,-106.98l246.828,52.594c2.739,0.58 5.531,0.869 8.27,0.869c10.192,0 20.147,-3.95 27.627,-11.166c9.508,-9.192 13.827,-22.492 11.536,-35.528l-52.911,-299.424c3.134,-32.262 60.311,-73.664 107.085,-97.42c46.801,24.284 101.423,66.133 104.478,97.42l-52.91,299.424c-2.292,13.036 2.028,26.336 11.535,35.528c7.506,7.242 17.435,11.166 27.628,11.166c2.765,0 5.53,-0.289 8.269,-0.869l246.881,-52.594c32.236,3.634 73.243,59.047 96.84,104.478c-24.15,47.591 -65.71,103.24 -96.892,106.954Zm-3.24,-251.385l-251.858,53.648l53.647,-303.637c0,-79.642 -144.22,-144.22 -144.22,-144.22c0,0 -147.143,64.578 -147.143,144.22l53.648,303.637l-251.859,-53.648c-79.642,-0 -144.22,147.143 -144.22,147.143c-0,0 64.578,144.221 144.22,144.221l251.859,-53.649l-53.648,770.72c-0,79.642 147.143,144.221 147.143,144.221c0,-0 144.22,-64.579 144.22,-144.221l-53.647,-770.72l251.858,53.649c79.643,-0 144.22,-147.144 144.22,-147.144c0,0 -64.577,-144.22 -144.22,-144.22Z" style="fill-rule:nonzero;"/><path d="M908.548,605.326l-236.741,-50.435c-24.098,-5.057 -50.093,1.659 -68.66,17.751c-18.752,16.303 -28.918,40.822 -27.206,65.552l53.253,764.951c-2.897,7.085 -24.177,30.762 -64.92,55.019c-41.507,-24.178 -63.604,-48.039 -66.922,-55.413l53.226,-764.557c1.712,-24.756 -8.454,-49.276 -27.205,-65.579c-18.568,-16.091 -44.352,-22.807 -68.713,-17.724l-237.084,50.514c-10.482,-6.268 -32.078,-28.655 -52.963,-63.709c20.095,-34.449 42.376,-58.783 53.358,-65.71l236.61,50.382c25.362,5.504 53.253,-2.528 71.899,-20.542c19.042,-18.41 27.654,-44.957 23.071,-71.057l-51.383,-290.758c5.557,-9.429 27.812,-31.499 66.158,-53.78c37.003,22.097 58.6,44.246 64.051,53.753l-51.383,290.811c-4.635,26.074 4.003,52.621 23.045,71.031c18.515,17.908 46.827,25.967 71.82,20.569l237.084,-50.514c10.482,6.267 32.104,28.654 52.963,63.734c-20.095,34.449 -42.376,58.784 -53.358,65.711Zm73.453,-70.715c-22.281,-38.872 -50.224,-71.083 -67.922,-78.352l-2.845,-1.184l-243.536,51.883c-18.778,4.029 -40.005,-2.054 -53.832,-15.433c-14.301,-13.801 -20.754,-33.711 -17.303,-53.28l52.41,-296.578l-0.948,-2.555c-6.558,-17.488 -39.637,-46.484 -78.668,-68.976l-4.899,-2.818l-4.925,2.765c-40.322,22.624 -74.375,51.62 -81.012,68.95l-0.974,2.555l52.41,296.631c3.45,19.568 -3.003,39.505 -17.277,53.306c-13.959,13.457 -34.844,19.515 -53.938,15.407l-243.325,-51.831l-2.924,1.29c-17.566,7.743 -46.168,41.586 -68.028,80.459l-2.765,4.925l2.818,4.899c22.281,38.873 50.224,71.083 67.949,78.378l2.844,1.159l243.457,-51.857c18.226,-3.819 37.662,1.211 51.568,13.273c14.064,12.221 21.701,30.604 20.385,49.198l-53.359,766.479l-0.079,1.448l0.316,1.423c3.872,17.065 39.058,48.09 81.881,72.136l4.925,2.765l4.899,-2.792c42.218,-24.282 76.508,-55.333 79.695,-72.241l0.237,-1.264l-53.437,-767.954c-1.317,-18.568 6.321,-36.951 20.384,-49.171c13.906,-12.036 33.501,-17.119 51.515,-13.3l243.405,51.831l2.923,-1.291c17.567,-7.717 46.168,-41.559 68.028,-80.459l2.765,-4.925l-2.818,-4.899Z" style="fill-rule:nonzero;"/><path d="M416.156,323.785c-24.046,-41.822 -34.581,-87.833 -45.458,-134.291c-2.396,-10.324 -33.184,-138.953 -30.313,-139.558c5.109,-1.107 43.218,124.547 46.668,134.976c9.613,29.207 19.832,57.572 25.336,87.938c2.371,13.247 4.293,26.574 5.268,39.98c0.026,0.184 0.395,14.169 -1.501,10.955Z" style="fill-rule:nonzero;"/><path d="M381.733,1146.86c4.451,-50.251 9.455,-100.422 14.591,-150.595c3.213,-30.392 5.373,-60.495 12.141,-90.387c0.922,-4.056 14.986,-60.101 18.594,-58.626c6.215,2.555 1.159,49.672 0.843,54.939c-1.87,32.842 -8.665,64.34 -14.749,96.551c-6.189,32.131 -12.009,64.34 -18.594,96.418c-2.818,13.801 -5.688,27.601 -8.533,41.376c-0.316,1.527 -4.53,13.168 -4.293,10.324Z" style="fill-rule:nonzero;"/><path d="M257.371,225.892c-21.57,-19.358 -43.14,-38.689 -64.709,-58.046c-10.193,-9.139 -67.343,-47.09 -51.225,-65.052c18.067,-20.122 52.752,40.98 60.574,51.12c18.436,23.992 36.898,47.985 55.36,71.978Z" style="fill-rule:nonzero;"/><path d="M368.539,347.331c-20.596,-5.531 -31.42,-19.963 -43.588,-36.082c-2.607,-3.582 -34.843,-46.089 -32.368,-47.696c4.399,-2.817 40.638,32.579 44.826,36.135c10.166,8.981 19.779,15.96 26.205,28.285c0.447,0.791 9.007,20.28 4.925,19.358Z" style="fill-rule:nonzero;"/><path d="M955.217,1055.53c-40.901,-47.222 -81.802,-94.417 -122.703,-141.639c29.26,24.915 58.494,49.856 87.754,74.771c15.723,13.405 31.472,26.81 47.195,40.216c2.371,2.027 5.742,4.056 7.691,6.532c14.959,12.772 -6.927,34.922 -19.937,20.12Z" style="fill-rule:nonzero;"/><path d="M853.267,1115.86c-30.682,-49.092 -60.654,-98.604 -90.941,-147.96c-16.724,-27.232 -33.448,-54.017 -46.932,-83.066c-1.87,-4.003 -26.732,-60.549 -23.071,-61.602c7.085,-2.08 36.239,47.169 39.663,52.384c18.805,28.76 33.29,59.389 48.802,89.967c16.303,32.341 32.921,64.524 48.829,97.024c6.426,13.116 12.826,26.232 19.225,39.347c1.08,2.213 5.584,15.723 4.425,13.906Z" style="fill-rule:nonzero;"/><path d="M300.247,784.179c-43.271,40.638 -94.285,69.371 -145.484,98.526c-11.456,6.505 -153.333,88.018 -154.728,85.489c-2.529,-4.635 134.607,-92.442 145.8,-99.948c31.894,-21.254 62.892,-42.955 97.077,-60.522c14.38,-7.4 28.997,-14.38 43.956,-20.569c0.843,-0.342 15.697,-5.215 13.379,-2.976Z" style="fill-rule:nonzero;"/><path d="M978.814,946.387c-46.932,-32.737 -93.495,-65.921 -140.032,-99.237c-28.628,-20.596 -57.493,-40.216 -83.856,-63.788c-3.266,-2.923 -49.856,-46.3 -46.933,-48.723c5.162,-4.293 48.75,27.232 53.253,30.182c31.394,20.569 59.205,44.905 87.939,68.897c28.654,24.046 57.519,47.828 85.884,72.216c11.825,10.166 23.624,20.358 35.449,30.524c1.633,1.396 10.298,11.299 8.296,9.929Z" style="fill-rule:nonzero;"/><path d="M378.31,681.413c-38.32,31.762 -83.172,50.935 -128.339,70.556c-10.061,4.345 -135.108,59.31 -136.241,56.598c-2.001,-4.846 118.885,-66.474 128.814,-71.873c27.969,-15.065 54.991,-30.603 84.804,-41.824c13.01,-4.898 26.179,-9.322 39.61,-12.851c0.238,-0.053 14.17,-3.003 11.352,-0.606Z" style="fill-rule:nonzero;"/><path d="M1027.17,776.093c-56.545,-15.064 -112.853,-31.025 -169.293,-46.563c-32.737,-9.007 -65.052,-17.882 -96.472,-30.972c-3.371,-1.396 -55.333,-23.888 -53.49,-26.995c3.424,-5.768 53.833,8.612 59.047,9.85c35.713,8.401 69.319,21.543 103.715,34.08c34.185,12.562 68.502,24.783 102.555,37.74c13.721,5.241 27.417,10.482 41.138,15.697c2.318,0.895 14.88,7.716 12.8,7.163Z" style="fill-rule:nonzero;"/><path d="M371.041,769.43c-25.099,31.841 -50.172,63.683 -75.245,95.524c-15.696,19.91 -31.393,39.821 -47.09,59.758c-7.4,9.402 -20.99,34.396 -35.897,22.649c-15.644,-12.325 5.268,-27.601 13.643,-35.844c18.357,-18.014 36.713,-36.055 55.07,-54.095c29.839,-29.34 59.679,-58.679 89.519,-87.992Z" style="fill-rule:nonzero;"/><path d="M1032.04,253.256c-43.429,27.548 -87.28,54.332 -130.946,81.512c-25.152,15.644 -49.83,31.051 -77.009,43.035c-3.029,1.343 -49.803,21.016 -50.725,17.434c-1.685,-6.479 37.583,-30.392 41.902,-33.316c26.495,-18.041 54.912,-31.34 83.461,-45.642c28.418,-14.142 56.703,-28.575 85.279,-42.349c12.483,-6.005 24.993,-11.983 37.477,-17.961c1.343,-0.659 13.01,-4.293 10.561,-2.713Z" style="fill-rule:nonzero;"/><path d="M322.054,371.165c-27.127,6.189 -51.33,-1.105 -77.166,-8.533c-5.9,-1.764 -75.719,-21.754 -74.797,-24.441c1.765,-5.003 71.373,6.98 78.273,7.823c18.093,2.423 34.949,3.635 51.989,10.851c1.685,0.711 24.756,13.51 21.701,14.3Z" style="fill-rule:nonzero;"/><path d="M855.953,217.2c-59.073,67.554 -118.146,135.108 -177.22,202.662c29.603,-42.086 59.205,-84.146 88.834,-126.205c17.777,-25.284 35.555,-50.541 53.359,-75.798c4.003,-5.715 8.032,-11.43 12.062,-17.146c11.535,-16.407 36.002,1.528 22.965,16.487Z" style="fill-rule:nonzero;"/><path d="M350.498,921.946c-4.951,22.466 -9.903,44.957 -14.854,67.449c-2.818,12.694 -5.662,63.946 -27.654,59.099c-25.783,-5.688 4.925,-50.066 10.351,-61.075c10.719,-21.832 21.438,-43.666 32.157,-65.473Z" style="fill-rule:nonzero;"/><path d="M795.537,77.905c-4.03,22.308 -10.087,44.167 -14.643,66.369c-2.581,12.457 -5.689,23.572 -12.747,34.37c-0.527,0.816 -14.512,18.989 -15.407,15.038c-3.635,-1.396 -0.29,-24.151 0.158,-26.837c2.054,-12.562 8.032,-22.492 13.221,-33.869c6.11,-12.853 11.851,-25.89 18.462,-38.478c1.053,-2.134 11.325,-18.647 10.956,-16.593Z" style="fill-rule:nonzero;"/><path d="M663.59,482.491l-42.166,-42.165l-58.151,58.152l-58.152,-58.152l-42.165,42.165l58.152,58.152l-58.152,58.151l42.165,42.165l58.152,-58.151l58.151,58.151l42.166,-42.165l-58.152,-58.151l58.152,-58.152Z" style="fill-rule:nonzero;"/></g></svg>